<svg data-v-fde0c5aa="" xmlns="http://www.w3.org/2000/svg" viewBox="0 0 300 300" class="iconLeftSlogan"><!----><defs data-v-fde0c5aa=""><!----></defs><rect data-v-fde0c5aa="" fill="transparent" x="0" y="0" width="300px" height="300px" class="logo-background-square"></rect><defs data-v-fde0c5aa=""><!----></defs><g data-v-fde0c5aa="" id="c5303797-be62-4fc0-8e05-7bb38dee21bd" fill="#000000" transform="matrix(3.1041034956192823,0,0,3.1041034956192823,122.7986234954227,114.03417422954168)"><path d="M0.59 8.55C0.59 11.55 2.11 13.51 5.71 13.51C6.69 13.51 8.15 13.34 8.99 12.84L9.16 10.11L8.62 10.11C8.09 11.65 7.49 12.87 5.91 12.87C3.42 12.87 3.07 9.91 3.07 8.33C3.07 7.31 3.26 4.05 5.80 4.05C7.59 4.05 8.08 5.52 8.40 6.52L8.93 6.52L8.93 4.02C8.09 3.51 6.62 3.40 5.92 3.40C3.95 3.40 2.62 3.95 1.79 4.87C0.94 5.82 0.59 7.15 0.59 8.55ZM10.63 4.44C10.63 5.11 11.12 5.67 11.90 5.67C12.67 5.67 13.19 5.11 13.19 4.44C13.19 3.78 12.70 3.22 11.90 3.22C11.12 3.22 10.63 3.78 10.63 4.44ZM10.01 13.30L13.94 13.30L13.94 12.77C13.15 12.73 13.03 12.67 13.03 12.08L13.03 6.36L12.94 6.27L10.09 6.68L10.09 7.18L10.58 7.25C10.81 7.28 10.92 7.41 10.92 7.97L10.92 12.08C10.92 12.67 10.81 12.73 10.01 12.77ZM14.43 13.30L18.20 13.30L18.20 12.77L17.91 12.74C17.61 12.71 17.46 12.64 17.46 12.18L17.46 8.86C17.46 8.55 17.50 8.23 17.60 8.04C17.78 7.67 18.16 7.35 18.75 7.35C19.46 7.35 19.82 7.78 19.85 8.62L19.85 12.18C19.85 12.64 19.70 12.71 19.40 12.74L19.11 12.77L19.11 13.30L22.88 13.30L22.88 12.77C22.08 12.73 21.97 12.67 21.97 12.08L21.97 8.43C21.95 7.11 21.29 6.27 19.85 6.27C19.04 6.27 18.38 6.69 17.46 7.24L17.28 6.27L14.52 6.68L14.52 7.18L15.01 7.25C15.23 7.28 15.34 7.41 15.34 7.97L15.34 12.08C15.34 12.67 15.23 12.73 14.43 12.77ZM23.48 9.87C23.48 11.77 24.30 13.47 26.91 13.47C28.57 13.47 29.48 12.66 29.96 11.42L29.46 11.14C29.04 11.94 28.43 12.39 27.58 12.39C26.18 12.39 25.70 11.24 25.70 9.77L29.32 9.77C29.82 9.77 30.07 9.63 30.07 9.18C30.07 8.04 29.64 6.27 26.94 6.27C24.42 6.27 23.48 7.91 23.48 9.87ZM25.70 9.10C25.70 8.09 25.97 6.92 26.88 6.92C27.73 6.92 27.87 7.98 27.87 8.64C27.87 9.02 27.76 9.10 27.44 9.10ZM29.88 13.30L33.15 13.30L33.15 12.77L32.31 12.70C32.00 12.67 31.99 12.50 32.06 12.19C32.23 11.44 32.48 10.68 32.73 9.86L35.45 9.86L36.18 12.18C36.27 12.47 36.23 12.66 35.94 12.68L35.13 12.77L35.13 13.30L39.55 13.30L39.55 12.77C38.82 12.75 38.64 12.67 38.46 12.10L35.70 3.61L33.94 3.61L32.31 8.33C31.81 9.77 31.35 11.19 31.01 12.04C30.79 12.63 30.63 12.73 29.88 12.77ZM32.96 9.18L34.09 5.56L34.13 5.56L35.22 9.18ZM39.75 13.30L44.20 13.30L44.20 12.77C43.20 12.73 43.09 12.66 43.09 11.94L43.09 4.97C43.09 4.26 43.20 4.19 44.20 4.14L44.20 3.61L39.75 3.61L39.75 4.14C40.74 4.19 40.85 4.26 40.85 4.97L40.85 11.94C40.85 12.66 40.74 12.73 39.75 12.77Z"></path></g><defs data-v-fde0c5aa=""><linearGradient data-v-fde0c5aa="" gradientTransform="rotate(25)" id="94a8832a-7cb6-41db-b881-6014bc5e2ab1" x1="0%" y1="0%" x2="100%" y2="0%"><stop data-v-fde0c5aa="" offset="0%" stop-color="#006678" stop-opacity="1"></stop><stop data-v-fde0c5aa="" offset="100%" stop-color="#4FA8FF" stop-opacity="1"></stop></linearGradient></defs><g data-v-fde0c5aa="" id="f145eeb2-3996-461e-848b-d9c224b543eb" stroke="none" fill="url(#94a8832a-7cb6-41db-b881-6014bc5e2ab1)" transform="matrix(0.8851387441975186,0,0,0.8851387441975186,31.159770322384098,105.03495584660968)"><path d="M37.7 13.4c-6.8 0-12.4 5.6-12.4 12.4 0 .5 0 1 .1 1.5-.9-.2-1.8-.2-2.7-.1-2.4.5-4.6 2.6-5.5 5.5-1 2.9-.8 6.2.5 8.8-3.2 1.1-5.7 3.6-6.9 7.2-2.2 6.3.1 12 6.5 16.2-1.8 3.1-2 7-.5 10 1.1 2.2 3.1 3.8 5.4 4.4 2.4.6 5 .2 7.3-1.3h.1c1 2 2.7 5.2 4.3 7.1l.2.2c.1.2.2.3.4.5 1.7 1.8 4 2.8 6.5 2.8 4.4 0 8.1-3.1 8.8-7.5.1-.5.1-.9.1-1.5V26.2c0-7.1-5.4-12.8-12.2-12.8zm10.2 14.4c-.6 2.9-4.1 7.2-8 7.2-2.8 0-5.4-1-6.8-2.6-.4-.4-1-.5-1.4-.1-.4.4-.5 1-.1 1.4 1.2 1.3 2.9 2.3 5 2.8-.7 1.2-1.7 3.4-1.4 6 .3 2.4 1.7 4.6 4.1 6.4.2.1.4.2.6.2.3 0 .6-.1.8-.4.3-.4.2-1.1-.2-1.4-2-1.5-3.1-3.2-3.3-5-.4-2.9 1.5-5.4 1.5-5.4.4 0 .8.1 1.2.1 3.3 0 6.2-2.1 8-4.6v25.3c-3.4.2-12.5 0-14.6-6.3-.2-.5-.7-.8-1.3-.6-.5.2-.8.7-.6 1.3.5 1.4 1.3 2.6 2.2 3.6-1.9.8-6.7 3.4-9 10.8-.2.5.1 1.1.7 1.3h.3c.4 0 .8-.3 1-.7 2.5-8 8.2-9.7 8.5-9.7.1 0 .3-.1.4-.2 3.3 2.2 7.8 2.7 10.9 2.7h1.7v20c0 .4 0 .8-.1 1.1-.5 3.3-3.5 5.8-6.9 5.8-1.9 0-3.7-.7-5-2.1.1-1.8 1-8.8 8.1-9.5.5-.1.9-.5.9-1.1-.1-.5-.6-1-1.1-.9-6.7.7-8.9 6-9.6 9.3-1.2-1.9-2.5-4.2-3.1-5.6 1.1-1 3.2-3.6 4.5-8.8.1-.5-.2-1.1-.7-1.2-.5-.1-1.1.2-1.2.7-1.5 6.1-4.3 8.2-4.3 8.2-.3.3-.6.5-.9.7-1.8 1.1-3.8 1.5-5.6 1-1.8-.5-3.3-1.7-4.2-3.4-1.4-2.7-1-6.2.9-8.9.3-.4.2-1.1-.2-1.4-.1-.1-.2-.1-.3-.2-4.3-2.6-8.9-7.1-6.4-14.3 1.1-3.1 3.3-5.3 6.1-6.1.6.9 1.9 2.5 3.9 3.4.1.1.3.1.4.1.4 0 .8-.2.9-.6.2-.5 0-1.1-.5-1.3-2.2-.9-3.2-3.1-3.3-3.1v-.1-.1c-1.6-2.2-1.9-5.4-1-8.2.7-2.2 2.3-3.9 4-4.2 1.1-.2 2.2 0 3.1.6h.1c.1 0 .2.1.2.1h.4s.1 0 .1-.1c.1 0 .1-.1.2-.1s.1-.1.1-.2l.1-.1c0-.1.1-.1.1-.2s0-.1.1-.2v-.2-.2c-.3-.9-.4-1.9-.4-2.9 0-5.7 4.7-10.4 10.4-10.4 5.5 0 10.2 5 10.2 10.9v1.7zM90.1 48.3c-1.2-3.6-3.7-6.1-6.9-7.2 1.3-2.6 1.5-5.8.5-8.8-1-2.9-3.1-5.1-5.5-5.5-.9-.2-1.8-.2-2.7.1.1-.5.1-1 .1-1.5C75.6 18.6 70 13 63.2 13 56.5 13 51 18.8 51 25.9v53.4c0 .5 0 1 .1 1.5.7 4.3 4.4 7.5 8.8 7.5 2.8 0 5.3-1.3 7.1-3.4 1.6-1.9 3.3-5.1 4.3-7.1h.1c2.2 1.5 4.8 1.9 7.3 1.3 2.3-.6 4.3-2.2 5.4-4.4 1.6-3.1 1.4-6.9-.5-10 6.4-4.3 8.7-10 6.5-16.4zm-8.2 15c-.1 0-.2.1-.3.2-.4.3-.5.9-.2 1.4 1.9 2.6 2.3 6.2.9 8.9-.9 1.7-2.4 2.9-4.2 3.4-1.9.5-3.9.1-5.6-1-.3-.2-.6-.5-.9-.7-.2-.2-.6-.3-.9-.2-.3.1-.6.3-.7.6-.6 1.6-2.8 5.6-4.5 7.8-1.3 1.7-3.3 2.7-5.5 2.7-3.4 0-6.3-2.5-6.9-5.8-.1-.5-.1-.9-.1-1.3V25.9C53 20 57.7 15 63.2 15c5.7 0 10.4 4.7 10.4 10.4 0 1-.1 1.9-.4 2.9v.4c0 .1 0 .1.1.2 0 .1 0 .1.1.2l.1.1c0 .1.1.1.1.2.1 0 .1.1.2.1l.1.1h.5c.1 0 .2-.1.2-.1h.1c1-.6 2-.8 3.1-.6 1.7.3 3.3 2 4 4.2.9 2.8.6 6-1 8.2-.2.3-.2.6-.1.9s.4.5.7.6c3.1.6 5.6 2.9 6.7 6.2 2.6 7.2-2 11.7-6.2 14.3z"></path><path d="M72 46.5h-7.7c-.3 0-.5.2-.5.5v7.3c0 .3.2.5.5.5H72c.3 0 .5-.2.5-.5V47c0-.3-.2-.5-.5-.5zm-.5 7.3h-6.7v-6.3h6.7v6.3z"></path><path d="M75.7 36.6c.4 1 1.3 1.7 2.4 1.7 1.4 0 2.5-1.1 2.5-2.5s-1.1-2.5-2.5-2.5c-1.3 0-2.4 1.1-2.5 2.4h-4.8c-.3 0-.5.2-.5.5V44h-1.4V31c0-.3-.2-.5-.5-.5h-7.6c-.4-1-1.3-1.6-2.3-1.6-1.4 0-2.5 1.1-2.5 2.5s1.1 2.5 2.5 2.5c1.3 0 2.4-1.1 2.5-2.4h6.9v12.4h-1.2v-6c0-.3-.2-.5-.5-.5h-1.6c-.2-1.2-1.2-2.1-2.5-2.1-1.4 0-2.5 1.1-2.5 2.5s1.1 2.5 2.5 2.5c1.2 0 2.2-.8 2.4-2h1.2v5.5h-4.1c-.3 0-.5.2-.5.5v1.5H58c-.3 0-.5.2-.5.5s.2.5.5.5h3.1v1H58c-.3 0-.5.2-.5.5s.2.5.5.5h3.1v1H58c-.3 0-.5.2-.5.5s.2.5.5.5h3.1v1H58c-.3 0-.5.2-.5.5s.2.5.5.5h3.1v1H58c-.3 0-.5.2-.5.5s.2.5.5.5h3.1v1.9c0 .3.2.5.5.5h4.1v5.5h-1.2c-.2-1.1-1.3-2-2.4-2-1.4 0-2.5 1.1-2.5 2.5s1.1 2.5 2.5 2.5c1.2 0 2.2-.9 2.5-2.1h1.6c.3 0 .5-.2.5-.5v-6h1.2v12.4H61c-.1-1.3-1.2-2.4-2.5-2.4-1.4 0-2.5 1.1-2.5 2.5s1.1 2.5 2.5 2.5c1.1 0 2-.7 2.3-1.6h7.6c.3 0 .5-.2.5-.5V57.4h1.4v8.5c0 .3.2.5.5.5h4.9c.4 1 1.3 1.6 2.3 1.6 1.4 0 2.5-1.1 2.5-2.5S79.4 63 78 63c-1.3 0-2.4 1.1-2.5 2.4h-4.3v-8h1v2.7c0 .3.2.5.5.5s.5-.2.5-.5v-2.7h1.5c.3 0 .5-.2.5-.5V55H78c.3 0 .5-.2.5-.5s-.2-.5-.5-.5h-2.7v-1H78c.3 0 .5-.2.5-.5s-.2-.5-.5-.5h-2.7v-1H78c.3 0 .5-.2.5-.5s-.2-.5-.5-.5h-2.7v-1H78c.3 0 .5-.2.5-.5s-.2-.5-.5-.5h-2.7v-1H78c.3 0 .5-.2.5-.5s-.2-.5-.5-.5h-2.7v-1.5c0-.3-.2-.5-.5-.5h-1.5v-2.7c0-.3-.2-.5-.5-.5s-.5.2-.5.5V44h-1v-7.3h4.4zm2.4-2.4c.8 0 1.5.7 1.5 1.5s-.7 1.5-1.5 1.5-1.5-.7-1.5-1.5c-.1-.8.6-1.5 1.5-1.5zm-19.7-1.3c-.8 0-1.5-.7-1.5-1.5s.7-1.5 1.5-1.5c.7 0 1.3.5 1.5 1.1v.4c0 .8-.6 1.5-1.5 1.5zm3.7 6.5c-.8 0-1.5-.7-1.5-1.5s.7-1.5 1.5-1.5 1.5.7 1.5 1.5-.7 1.5-1.5 1.5zm0 25.5c-.8 0-1.5-.7-1.5-1.5s.7-1.5 1.5-1.5 1.5.7 1.5 1.5-.7 1.5-1.5 1.5zm-3.7 6.5c-.8 0-1.5-.7-1.5-1.5s.7-1.5 1.5-1.5 1.5.7 1.5 1.5V70.2c-.2.7-.8 1.2-1.5 1.2zM78.1 64c.8 0 1.5.7 1.5 1.5s-.7 1.5-1.5 1.5-1.5-.7-1.5-1.5c-.1-.8.6-1.5 1.5-1.5zm-3.9-7.6H62.1V44.9h12.2v11.5z"></path></g><defs data-v-fde0c5aa=""><!----></defs><g data-v-fde0c5aa="" id="c4cba5ad-58cd-4856-9920-4a491e6575bc" fill="#000000" transform="matrix(0.3899128930075426,0,0,0.3899128930075426,124.3454082421162,164.83986499884827)"><path d="M0.73 5.77C0.73 9.07 5.71 8.20 5.71 10.65C5.71 11.59 4.87 12.31 3.89 12.31C3.07 12.31 1.47 11.83 1.44 11.47L1.36 10.15C1.34 9.97 1.27 9.91 1.09 9.91L1.02 9.91C0.81 9.91 0.81 10.00 0.81 10.12C0.81 10.32 0.92 11.66 0.95 12.17C0.97 12.38 2.23 12.85 3.77 12.85C5.33 12.85 6.94 11.87 6.94 10.11C6.94 6.79 1.97 7.87 1.97 5.32C1.97 4.31 2.76 3.56 3.79 3.56C4.82 3.56 5.91 4.58 5.91 4.89C5.91 5.01 5.87 5.73 5.87 5.78C5.87 5.92 5.91 5.99 6.17 5.99C6.41 5.99 6.43 5.94 6.43 5.75C6.43 5.04 6.51 3.68 6.51 3.53C6.51 3.30 6.47 3.29 6.20 3.29C5.98 3.29 5.96 3.32 5.95 3.53C5.95 3.61 5.94 3.78 5.89 3.78C5.84 3.78 5.75 3.74 5.68 3.68C4.89 3.14 4.27 3.08 3.77 3.08C2.24 3.08 0.73 4.17 0.73 5.77ZM14.84 12.39C14.84 12.63 14.87 12.68 15.06 12.68C15.30 12.68 15.81 12.64 16.23 12.64C16.65 12.64 17.14 12.68 17.46 12.68C17.63 12.68 17.65 12.61 17.65 12.40C17.65 12.24 17.63 12.18 17.46 12.18L16.49 12.18C16.44 12.18 16.42 11.54 16.42 10.79C16.42 8.96 16.46 6.13 16.53 4.28C16.56 3.88 16.59 3.91 16.73 4.27L19.99 12.32C20.09 12.54 20.16 12.74 20.27 12.74C20.37 12.74 20.44 12.63 20.52 12.45C20.86 11.79 21.04 11.75 21.31 11.09L23.90 4.47C24.02 4.16 24.07 4.02 24.08 4.47C24.11 5.66 24.15 8.47 24.15 9.74C24.15 10.99 24.11 12.18 24.05 12.18L23.42 12.18C23.20 12.18 23.13 12.19 23.13 12.39C23.13 12.63 23.16 12.68 23.35 12.68C23.55 12.68 24.25 12.64 24.85 12.64C25.27 12.64 26.03 12.68 26.35 12.68C26.52 12.68 26.54 12.61 26.54 12.40C26.54 12.22 26.49 12.18 26.32 12.18L25.59 12.18C25.48 12.18 25.38 8.44 25.38 6.03L25.38 4.77C25.38 4.17 25.41 3.77 25.45 3.70L26.11 3.70C26.33 3.70 26.38 3.68 26.38 3.49C26.38 3.25 26.36 3.19 26.17 3.19C25.84 3.19 25.16 3.23 24.74 3.23L24.07 3.23C23.84 3.23 23.81 3.29 23.70 3.58L20.96 10.72C20.87 10.95 20.85 11.02 20.73 10.74L17.79 3.40C17.72 3.22 17.67 3.19 17.53 3.19C17.44 3.19 16.95 3.23 16.65 3.23C16.14 3.23 15.29 3.19 15.09 3.19C14.95 3.19 14.95 3.26 14.95 3.47C14.95 3.64 14.95 3.70 15.09 3.70L15.79 3.70C16.06 3.70 16.06 3.72 16.06 3.84C16.06 4.82 15.85 9.94 15.81 10.79C15.76 11.55 15.76 12.18 15.71 12.18L15.13 12.18C14.91 12.18 14.84 12.19 14.84 12.39ZM34.30 12.39C34.30 12.63 34.30 12.68 34.50 12.68C34.66 12.68 34.99 12.64 35.56 12.64C36.18 12.64 36.72 12.68 36.88 12.68C37.04 12.68 37.04 12.61 37.04 12.40C37.04 12.24 37.04 12.18 36.88 12.18L35.80 12.18C35.80 12.18 35.78 12.18 35.78 12.17C35.80 11.87 36.57 9.90 36.92 9.02C36.99 8.83 37.00 8.79 37.21 8.79L40.04 8.79C40.18 8.79 40.18 8.81 40.25 9.03C40.52 9.77 41.23 11.89 41.23 12.17C41.23 12.18 41.22 12.18 41.22 12.18L40.45 12.18C40.22 12.18 40.21 12.19 40.21 12.39C40.21 12.63 40.22 12.68 40.39 12.68C40.71 12.68 41.58 12.64 42 12.64C42.42 12.64 43.09 12.68 43.30 12.68C43.44 12.68 43.46 12.61 43.46 12.40C43.46 12.24 43.44 12.18 43.30 12.18L42.81 12.18C42.71 12.18 41.69 9.34 41.13 7.78L39.45 3.07C39.44 3.00 39.37 2.94 39.28 2.94C39.16 2.94 39.06 3.16 38.98 3.35C38.82 3.71 38.58 3.84 38.47 4.13L36.99 7.57C36.81 8.01 35.10 12.18 34.97 12.18L34.55 12.18C34.33 12.18 34.30 12.19 34.30 12.39ZM37.20 8.33C37.20 8.30 37.23 8.23 37.27 8.13L38.64 4.77C38.68 4.66 38.71 4.61 38.74 4.61C38.75 4.61 38.77 4.63 38.81 4.77L39.97 8.18C40.00 8.25 40.01 8.29 40.01 8.32C40.01 8.36 39.98 8.37 39.89 8.37L37.38 8.37C37.20 8.37 37.20 8.34 37.20 8.33ZM51.21 3.51C51.21 3.72 51.28 3.79 51.48 3.79L52.29 3.77C52.39 3.77 52.43 6.61 52.43 8.55L52.43 10.42C52.43 11.30 52.42 12.18 52.37 12.18L51.77 12.18C51.55 12.18 51.48 12.19 51.48 12.39C51.48 12.63 51.52 12.68 51.72 12.68C51.84 12.68 52.67 12.64 53.09 12.64C53.51 12.64 54.28 12.68 54.60 12.68C54.77 12.68 54.80 12.61 54.80 12.40C54.80 12.24 54.77 12.18 54.60 12.18L53.79 12.18C53.72 12.18 53.63 9.18 53.63 8.37C53.63 8.30 53.63 8.26 53.75 8.26C54.14 8.26 54.74 8.27 55.03 8.27C57.27 8.32 57.41 10.00 57.41 11.68L57.41 12.49C57.41 12.61 57.47 12.64 57.57 12.64C57.57 12.64 59.01 12.68 59.49 12.68C59.65 12.68 59.71 12.64 59.71 12.53C59.71 12.24 59.65 12.18 59.50 12.18L58.86 12.18C58.76 12.18 58.73 12.14 58.70 11.31C58.62 8.99 57.25 8.34 56.34 8.05C56.20 8.01 56.22 8.01 56.34 7.95C56.92 7.69 58.24 6.94 58.24 5.63C58.24 3.63 56.55 3.21 55.15 3.21C54.82 3.21 53.54 3.29 53.12 3.29C52.70 3.29 51.72 3.26 51.49 3.26C51.31 3.26 51.21 3.28 51.21 3.51ZM53.63 7.80L53.63 4.40C53.63 4.05 53.66 3.68 53.70 3.68C53.91 3.65 54.19 3.65 54.42 3.65C55.72 3.65 56.97 4.47 56.97 5.82C56.97 6.99 56.42 7.57 55.76 7.88C55.72 7.90 55.68 7.90 55.61 7.90C55.13 7.88 54.42 7.88 53.82 7.87C53.65 7.87 53.63 7.85 53.63 7.80ZM66.22 5.01C66.22 5.17 66.40 5.17 66.53 5.17C66.68 5.17 66.72 5.15 66.74 4.97L66.85 3.89C66.86 3.81 67.41 3.75 68.17 3.75L70.15 3.75C70.21 3.75 70.24 4.35 70.24 4.97C70.24 6.43 70.18 12.18 70.06 12.18L69.19 12.18C68.96 12.18 68.92 12.19 68.92 12.39C68.92 12.63 68.94 12.68 69.13 12.68C69.45 12.68 70.43 12.64 70.85 12.64C71.27 12.64 72.21 12.68 72.53 12.68C72.70 12.68 72.73 12.61 72.73 12.40C72.73 12.24 72.70 12.18 72.53 12.18L71.54 12.18C71.51 12.18 71.51 11.76 71.51 11.31C71.51 9.56 71.60 5.96 71.60 5.92C71.61 5.18 71.61 3.75 71.71 3.75L73.32 3.75C74.03 3.75 74.86 3.78 74.86 3.85C74.86 3.99 74.82 4.90 74.82 4.97C74.82 5.12 74.89 5.17 75.07 5.17C75.26 5.17 75.33 5.17 75.33 5.03C75.33 3.93 75.39 3.40 75.39 3.14C75.39 2.94 75.31 2.94 75.11 2.94C74.96 2.94 74.90 2.98 74.89 3.16C74.89 3.23 74.24 3.28 73.40 3.28L68.40 3.28C67.75 3.28 66.93 3.28 66.93 3.21L66.93 3.07C66.93 2.94 66.81 2.94 66.71 2.94C66.49 2.94 66.46 3.00 66.44 3.19C66.39 3.89 66.22 4.97 66.22 5.01ZM83.15 12.39C83.15 12.63 83.17 12.68 83.37 12.68C83.69 12.68 84.66 12.64 85.08 12.64C85.50 12.64 90.01 12.68 90.33 12.68C90.45 12.68 90.61 12.66 90.61 12.49C90.61 12.07 90.65 11.23 90.65 10.53C90.65 10.39 90.50 10.39 90.37 10.39C90.26 10.39 90.13 10.39 90.13 10.51C90.12 11.06 90.12 11.41 90.09 11.76C90.06 12.01 90.06 12.04 89.96 12.04C89.81 12.04 87.18 12.08 85.68 12.08C85.61 12.08 85.57 10.11 85.53 8.26C85.53 8.06 85.57 8.09 85.71 8.09L87.99 8.09C88.69 8.09 88.72 8.20 88.72 8.30L88.72 9.00C88.72 9.14 88.90 9.14 89.01 9.14C89.11 9.14 89.24 9.13 89.24 9.02C89.24 8.83 89.21 8.33 89.21 7.83C89.21 7.32 89.24 6.83 89.24 6.71C89.24 6.59 89.10 6.58 89.00 6.58C88.89 6.58 88.72 6.59 88.72 6.72L88.72 7.45C88.72 7.62 88.27 7.63 87.99 7.63L85.65 7.63C85.54 7.63 85.53 7.63 85.53 7.45C85.51 6.75 85.50 6.06 85.50 5.46C85.50 5.12 85.50 3.71 85.58 3.71C86.81 3.71 89.32 3.75 89.32 3.81C89.32 3.99 89.28 4.83 89.28 4.89C89.28 5.04 89.35 5.10 89.53 5.10C89.73 5.10 89.80 5.08 89.80 4.94C89.80 3.85 89.85 3.36 89.85 3.09C89.85 2.91 89.77 2.90 89.57 2.90C89.38 2.90 89.38 2.95 89.35 3.11C89.33 3.25 89.40 3.25 88.49 3.25C87.88 3.25 85.74 3.29 84.97 3.29C84.48 3.29 83.54 3.25 83.44 3.25C83.31 3.25 83.26 3.30 83.26 3.49C83.26 3.72 83.33 3.74 83.50 3.74L84.15 3.74C84.21 3.74 84.28 4.79 84.28 5.71C84.28 5.80 84.34 8.27 84.34 9.83L84.34 11.17C84.34 11.84 84.31 12.18 84.28 12.18L83.43 12.18C83.20 12.18 83.15 12.21 83.15 12.39ZM98.62 3.51C98.62 3.72 98.69 3.79 98.88 3.79L99.69 3.77C99.79 3.77 99.83 6.61 99.83 8.55L99.83 10.42C99.83 11.30 99.82 12.18 99.78 12.18L99.18 12.18C98.95 12.18 98.88 12.19 98.88 12.39C98.88 12.63 98.92 12.68 99.12 12.68C99.25 12.68 100.07 12.64 100.49 12.64C100.91 12.64 101.68 12.68 102.00 12.68C102.17 12.68 102.20 12.61 102.20 12.40C102.20 12.24 102.17 12.18 102.00 12.18L101.19 12.18C101.12 12.18 101.04 9.18 101.04 8.37C101.04 8.30 101.04 8.26 101.15 8.26C101.54 8.26 102.14 8.27 102.44 8.27C104.68 8.32 104.82 10.00 104.82 11.68L104.82 12.49C104.82 12.61 104.87 12.64 104.97 12.64C104.97 12.64 106.41 12.68 106.89 12.68C107.06 12.68 107.11 12.64 107.11 12.53C107.11 12.24 107.06 12.18 106.90 12.18L106.26 12.18C106.16 12.18 106.13 12.14 106.11 11.31C106.02 8.99 104.65 8.34 103.74 8.05C103.60 8.01 103.63 8.01 103.74 7.95C104.33 7.69 105.64 6.94 105.64 5.63C105.64 3.63 103.95 3.21 102.55 3.21C102.23 3.21 100.94 3.29 100.52 3.29C100.10 3.29 99.12 3.26 98.90 3.26C98.71 3.26 98.62 3.28 98.62 3.51ZM101.04 7.80L101.04 4.40C101.04 4.05 101.07 3.68 101.11 3.68C101.32 3.65 101.60 3.65 101.82 3.65C103.12 3.65 104.37 4.47 104.37 5.82C104.37 6.99 103.82 7.57 103.17 7.88C103.12 7.90 103.08 7.90 103.01 7.90C102.54 7.88 101.82 7.88 101.22 7.87C101.05 7.87 101.04 7.85 101.04 7.80ZM124.32 12.39C124.32 12.63 124.35 12.68 124.54 12.68C124.78 12.68 125.29 12.64 125.71 12.64C126.13 12.64 126.62 12.68 126.94 12.68C127.11 12.68 127.13 12.61 127.13 12.40C127.13 12.24 127.11 12.18 126.94 12.18L125.97 12.18C125.92 12.18 125.90 11.54 125.90 10.79C125.90 8.96 125.94 6.13 126.01 4.28C126.04 3.88 126.07 3.91 126.21 4.27L129.47 12.32C129.57 12.54 129.64 12.74 129.75 12.74C129.85 12.74 129.92 12.63 130.00 12.45C130.34 11.79 130.52 11.75 130.79 11.09L133.38 4.47C133.50 4.16 133.55 4.02 133.56 4.47C133.59 5.66 133.63 8.47 133.63 9.74C133.63 10.99 133.59 12.18 133.53 12.18L132.90 12.18C132.68 12.18 132.61 12.19 132.61 12.39C132.61 12.63 132.64 12.68 132.83 12.68C133.03 12.68 133.73 12.64 134.33 12.64C134.75 12.64 135.51 12.68 135.83 12.68C136.00 12.68 136.02 12.61 136.02 12.40C136.02 12.22 135.97 12.18 135.80 12.18L135.07 12.18C134.96 12.18 134.86 8.44 134.86 6.03L134.86 4.77C134.86 4.17 134.89 3.77 134.93 3.70L135.59 3.70C135.81 3.70 135.86 3.68 135.86 3.49C135.86 3.25 135.84 3.19 135.65 3.19C135.32 3.19 134.64 3.23 134.22 3.23L133.55 3.23C133.32 3.23 133.29 3.29 133.18 3.58L130.44 10.72C130.35 10.95 130.33 11.02 130.21 10.74L127.27 3.40C127.20 3.22 127.15 3.19 127.01 3.19C126.92 3.19 126.43 3.23 126.13 3.23C125.62 3.23 124.77 3.19 124.57 3.19C124.43 3.19 124.43 3.26 124.43 3.47C124.43 3.64 124.43 3.70 124.57 3.70L125.27 3.70C125.54 3.70 125.54 3.72 125.54 3.84C125.54 4.82 125.33 9.94 125.29 10.79C125.24 11.55 125.24 12.18 125.19 12.18L124.61 12.18C124.39 12.18 124.32 12.19 124.32 12.39ZM143.99 8.15C143.99 11.17 146.33 12.80 148.58 12.80C151.37 12.80 153.34 10.89 153.34 8.06C153.34 5.33 151.59 3.11 148.79 3.11C146.19 3.11 143.99 5.10 143.99 8.15ZM145.39 7.77C145.39 5.64 146.68 3.58 148.65 3.58C150.89 3.58 151.97 5.81 151.97 7.94C151.97 10.08 150.86 12.32 148.60 12.32C146.61 12.32 145.39 10.28 145.39 7.77ZM160.61 3.51C160.61 3.75 160.71 3.77 160.87 3.77L161.31 3.77C161.39 3.77 164.18 10.99 164.22 11.07C164.71 12.18 164.81 12.99 165.02 12.99C165.28 12.99 165.34 12.67 165.62 12.26C165.77 12.04 165.86 12.01 166.01 11.66L169.25 4.06C169.36 3.81 169.34 3.77 169.71 3.77C169.93 3.77 170.00 3.75 170.00 3.56C170.00 3.32 169.96 3.26 169.76 3.26C169.62 3.26 169.09 3.30 168.67 3.30C168.25 3.30 167.43 3.26 167.20 3.26C167.01 3.26 166.95 3.29 166.95 3.51C166.95 3.75 167.08 3.77 167.24 3.77L168.24 3.77C168.31 3.77 168.32 3.81 168.32 3.95C168.32 4.63 166.64 8.72 165.91 10.63C165.77 10.99 165.69 11.17 165.65 11.17C165.61 11.17 165.51 10.98 165.37 10.60C164.79 9.10 163.66 6.01 163.14 4.49C163.06 4.27 162.97 3.93 162.97 3.79L162.97 3.77L163.95 3.77C164.18 3.77 164.25 3.75 164.25 3.56C164.25 3.32 164.21 3.26 164.01 3.26C163.69 3.26 162.61 3.30 162.19 3.30C161.77 3.30 161.06 3.26 160.87 3.26C160.69 3.26 160.61 3.28 160.61 3.51ZM177.48 12.39C177.48 12.63 177.52 12.68 177.72 12.68C178.04 12.68 178.79 12.64 179.51 12.64C180.17 12.64 180.96 12.68 181.19 12.68C181.36 12.68 181.38 12.61 181.38 12.40C181.38 12.24 181.36 12.18 181.19 12.18L180.22 12.18C180.12 12.18 180.10 9.55 180.10 7.76L180.10 5.87C180.10 5.14 180.12 3.70 180.22 3.70L181.13 3.70C181.36 3.70 181.38 3.68 181.38 3.49C181.38 3.25 181.36 3.19 181.19 3.19C180.87 3.19 180.19 3.23 179.54 3.23C178.72 3.23 178.01 3.19 177.79 3.19C177.60 3.19 177.53 3.21 177.53 3.44C177.53 3.68 177.62 3.70 177.79 3.70L178.71 3.70C178.75 3.70 178.82 4.79 178.82 5.71L178.82 7.08C178.82 8.92 178.81 12.18 178.70 12.18L177.77 12.18C177.55 12.18 177.48 12.19 177.48 12.39ZM189.28 12.39C189.28 12.63 189.31 12.68 189.50 12.68C189.83 12.68 190.79 12.64 191.21 12.64C191.63 12.64 196.14 12.68 196.46 12.68C196.59 12.68 196.74 12.66 196.74 12.49C196.74 12.07 196.78 11.23 196.78 10.53C196.78 10.39 196.63 10.39 196.50 10.39C196.39 10.39 196.27 10.39 196.27 10.51C196.25 11.06 196.25 11.41 196.22 11.76C196.20 12.01 196.20 12.04 196.10 12.04C195.94 12.04 193.31 12.08 191.81 12.08C191.74 12.08 191.70 10.11 191.66 8.26C191.66 8.06 191.70 8.09 191.84 8.09L194.12 8.09C194.82 8.09 194.85 8.20 194.85 8.30L194.85 9.00C194.85 9.14 195.03 9.14 195.15 9.14C195.24 9.14 195.37 9.13 195.37 9.02C195.37 8.83 195.34 8.33 195.34 7.83C195.34 7.32 195.37 6.83 195.37 6.71C195.37 6.59 195.23 6.58 195.13 6.58C195.02 6.58 194.85 6.59 194.85 6.72L194.85 7.45C194.85 7.62 194.40 7.63 194.12 7.63L191.79 7.63C191.67 7.63 191.66 7.63 191.66 7.45C191.65 6.75 191.63 6.06 191.63 5.46C191.63 5.12 191.63 3.71 191.72 3.71C192.95 3.71 195.45 3.75 195.45 3.81C195.45 3.99 195.41 4.83 195.41 4.89C195.41 5.04 195.48 5.10 195.66 5.10C195.86 5.10 195.93 5.08 195.93 4.94C195.93 3.85 195.99 3.36 195.99 3.09C195.99 2.91 195.90 2.90 195.71 2.90C195.51 2.90 195.51 2.95 195.48 3.11C195.47 3.25 195.54 3.25 194.63 3.25C194.01 3.25 191.87 3.29 191.10 3.29C190.61 3.29 189.67 3.25 189.57 3.25C189.45 3.25 189.39 3.30 189.39 3.49C189.39 3.72 189.46 3.74 189.63 3.74L190.29 3.74C190.34 3.74 190.41 4.79 190.41 5.71C190.41 5.80 190.47 8.27 190.47 9.83L190.47 11.17C190.47 11.84 190.44 12.18 190.41 12.18L189.56 12.18C189.34 12.18 189.28 12.21 189.28 12.39ZM214.48 12.46C214.48 12.63 214.49 12.70 214.68 12.70C214.83 12.70 216.06 12.64 216.45 12.64C217.31 12.64 218.19 12.70 219.04 12.70C221.66 12.70 224.06 11.07 224.06 7.91C224.06 4.89 221.72 3.07 218.68 3.07C218.12 3.07 216.86 3.23 215.82 3.23C215.35 3.23 214.89 3.22 214.83 3.22C214.65 3.22 214.63 3.32 214.63 3.49C214.63 3.68 214.70 3.70 214.83 3.70L215.80 3.67C215.82 3.67 215.82 4.20 215.82 4.72C215.82 5.91 215.74 12.21 215.66 12.21L214.76 12.21C214.58 12.21 214.48 12.22 214.48 12.46ZM217.06 11.40C217.06 9.46 217.06 7.52 217.07 5.60C217.07 5.03 217.11 3.61 217.15 3.60C217.45 3.53 218.04 3.51 218.39 3.51C220.95 3.51 222.56 5.75 222.56 7.73C222.56 8.95 222.52 12.25 217.84 12.25C217.57 12.25 217.17 12.25 217.07 12.21C217.06 12.19 217.06 11.79 217.06 11.40ZM232.02 12.39C232.02 12.63 232.06 12.68 232.26 12.68C232.58 12.68 233.34 12.64 234.05 12.64C234.71 12.64 235.51 12.68 235.73 12.68C235.90 12.68 235.93 12.61 235.93 12.40C235.93 12.24 235.90 12.18 235.73 12.18L234.77 12.18C234.67 12.18 234.64 9.55 234.64 7.76L234.64 5.87C234.64 5.14 234.67 3.70 234.77 3.70L235.68 3.70C235.90 3.70 235.93 3.68 235.93 3.49C235.93 3.25 235.90 3.19 235.73 3.19C235.41 3.19 234.74 3.23 234.08 3.23C233.27 3.23 232.55 3.19 232.33 3.19C232.15 3.19 232.08 3.21 232.08 3.44C232.08 3.68 232.16 3.70 232.33 3.70L233.25 3.70C233.30 3.70 233.37 4.79 233.37 5.71L233.37 7.08C233.37 8.92 233.35 12.18 233.24 12.18L232.32 12.18C232.09 12.18 232.02 12.19 232.02 12.39ZM244.03 5.77C244.03 9.07 249.02 8.20 249.02 10.65C249.02 11.59 248.18 12.31 247.20 12.31C246.37 12.31 244.78 11.83 244.75 11.47L244.66 10.15C244.65 9.97 244.58 9.91 244.40 9.91L244.33 9.91C244.12 9.91 244.12 10.00 244.12 10.12C244.12 10.32 244.23 11.66 244.26 12.17C244.27 12.38 245.53 12.85 247.07 12.85C248.64 12.85 250.25 11.87 250.25 10.11C250.25 6.79 245.28 7.87 245.28 5.32C245.28 4.31 246.06 3.56 247.10 3.56C248.12 3.56 249.21 4.58 249.21 4.89C249.21 5.01 249.17 5.73 249.17 5.78C249.17 5.92 249.21 5.99 249.48 5.99C249.72 5.99 249.73 5.94 249.73 5.75C249.73 5.04 249.82 3.68 249.82 3.53C249.82 3.30 249.77 3.29 249.51 3.29C249.28 3.29 249.27 3.32 249.26 3.53C249.26 3.61 249.24 3.78 249.20 3.78C249.14 3.78 249.06 3.74 248.99 3.68C248.19 3.14 247.58 3.08 247.07 3.08C245.55 3.08 244.03 4.17 244.03 5.77ZM258.29 7.91C258.29 11.31 260.65 12.87 263.24 12.87C265.02 12.87 266.80 11.90 266.84 11.59C267.01 10.29 267.06 9.70 267.06 9.66C267.06 9.56 267.02 9.52 266.85 9.51C266.80 9.51 266.74 9.49 266.70 9.49C266.59 9.49 266.53 9.53 266.50 9.70L266.32 11.33C266.31 11.45 265.20 12.24 263.63 12.24C261.51 12.24 259.80 10.29 259.80 7.94C259.80 5.42 261.23 3.54 263.23 3.54C265.08 3.54 266.42 5.01 266.42 5.17C266.42 5.29 266.36 6.40 266.36 6.45C266.36 6.59 266.41 6.64 266.67 6.64C266.87 6.64 266.94 6.62 266.94 6.44C266.94 5.73 266.99 3.92 266.99 3.67C266.99 3.47 266.88 3.44 266.67 3.44C266.45 3.44 266.42 3.50 266.42 3.67L266.42 4.05C266.42 4.16 266.38 4.16 266.25 4.06C265.97 3.86 264.99 3.04 263.33 3.04C260.48 3.04 258.29 4.96 258.29 7.91ZM275.52 8.15C275.52 11.17 277.86 12.80 280.11 12.80C282.90 12.80 284.87 10.89 284.87 8.06C284.87 5.33 283.12 3.11 280.32 3.11C277.72 3.11 275.52 5.10 275.52 8.15ZM276.92 7.77C276.92 5.64 278.21 3.58 280.18 3.58C282.42 3.58 283.50 5.81 283.50 7.94C283.50 10.08 282.39 12.32 280.13 12.32C278.14 12.32 276.92 10.28 276.92 7.77ZM292.14 3.51C292.14 3.75 292.24 3.77 292.40 3.77L292.84 3.77C292.92 3.77 295.71 10.99 295.75 11.07C296.24 12.18 296.34 12.99 296.55 12.99C296.81 12.99 296.87 12.67 297.15 12.26C297.30 12.04 297.39 12.01 297.54 11.66L300.78 4.06C300.89 3.81 300.87 3.77 301.24 3.77C301.46 3.77 301.53 3.75 301.53 3.56C301.53 3.32 301.49 3.26 301.29 3.26C301.15 3.26 300.62 3.30 300.20 3.30C299.78 3.30 298.96 3.26 298.73 3.26C298.54 3.26 298.48 3.29 298.48 3.51C298.48 3.75 298.61 3.77 298.77 3.77L299.77 3.77C299.84 3.77 299.85 3.81 299.85 3.95C299.85 4.63 298.17 8.72 297.44 10.63C297.30 10.99 297.22 11.17 297.18 11.17C297.14 11.17 297.04 10.98 296.90 10.60C296.32 9.10 295.19 6.01 294.67 4.49C294.59 4.27 294.50 3.93 294.50 3.79L294.50 3.77L295.48 3.77C295.71 3.77 295.78 3.75 295.78 3.56C295.78 3.32 295.74 3.26 295.54 3.26C295.22 3.26 294.14 3.30 293.72 3.30C293.30 3.30 292.59 3.26 292.40 3.26C292.22 3.26 292.14 3.28 292.14 3.51ZM309.15 12.39C309.15 12.63 309.18 12.68 309.37 12.68C309.69 12.68 310.66 12.64 311.08 12.64C311.50 12.64 316.01 12.68 316.33 12.68C316.46 12.68 316.61 12.66 316.61 12.49C316.61 12.07 316.65 11.23 316.65 10.53C316.65 10.39 316.50 10.39 316.37 10.39C316.26 10.39 316.13 10.39 316.13 10.51C316.12 11.06 316.12 11.41 316.09 11.76C316.06 12.01 316.06 12.04 315.97 12.04C315.81 12.04 313.18 12.08 311.68 12.08C311.61 12.08 311.57 10.11 311.53 8.26C311.53 8.06 311.57 8.09 311.71 8.09L313.99 8.09C314.69 8.09 314.72 8.20 314.72 8.30L314.72 9.00C314.72 9.14 314.90 9.14 315.01 9.14C315.11 9.14 315.24 9.13 315.24 9.02C315.24 8.83 315.21 8.33 315.21 7.83C315.21 7.32 315.24 6.83 315.24 6.71C315.24 6.59 315.10 6.58 315.00 6.58C314.89 6.58 314.72 6.59 314.72 6.72L314.72 7.45C314.72 7.62 314.27 7.63 313.99 7.63L311.65 7.63C311.54 7.63 311.53 7.63 311.53 7.45C311.51 6.75 311.50 6.06 311.50 5.46C311.50 5.12 311.50 3.71 311.58 3.71C312.82 3.71 315.32 3.75 315.32 3.81C315.32 3.99 315.28 4.83 315.28 4.89C315.28 5.04 315.35 5.10 315.53 5.10C315.73 5.10 315.80 5.08 315.80 4.94C315.80 3.85 315.85 3.36 315.85 3.09C315.85 2.91 315.77 2.90 315.57 2.90C315.38 2.90 315.38 2.95 315.35 3.11C315.34 3.25 315.41 3.25 314.50 3.25C313.88 3.25 311.74 3.29 310.97 3.29C310.48 3.29 309.54 3.25 309.44 3.25C309.32 3.25 309.26 3.30 309.26 3.49C309.26 3.72 309.33 3.74 309.50 3.74L310.16 3.74C310.21 3.74 310.28 4.79 310.28 5.71C310.28 5.80 310.34 8.27 310.34 9.83L310.34 11.17C310.34 11.84 310.31 12.18 310.28 12.18L309.43 12.18C309.20 12.18 309.15 12.21 309.15 12.39ZM324.62 3.51C324.62 3.72 324.69 3.79 324.88 3.79L325.70 3.77C325.79 3.77 325.84 6.61 325.84 8.55L325.84 10.42C325.84 11.30 325.82 12.18 325.78 12.18L325.18 12.18C324.95 12.18 324.88 12.19 324.88 12.39C324.88 12.63 324.93 12.68 325.12 12.68C325.25 12.68 326.07 12.64 326.49 12.64C326.91 12.64 327.68 12.68 328.01 12.68C328.17 12.68 328.20 12.61 328.20 12.40C328.20 12.24 328.17 12.18 328.01 12.18L327.19 12.18C327.12 12.18 327.04 9.18 327.04 8.37C327.04 8.30 327.04 8.26 327.15 8.26C327.54 8.26 328.15 8.27 328.44 8.27C330.68 8.32 330.82 10.00 330.82 11.68L330.82 12.49C330.82 12.61 330.88 12.64 330.97 12.64C330.97 12.64 332.42 12.68 332.89 12.68C333.06 12.68 333.12 12.64 333.12 12.53C333.12 12.24 333.06 12.18 332.91 12.18L332.26 12.18C332.16 12.18 332.14 12.14 332.11 11.31C332.02 8.99 330.65 8.34 329.74 8.05C329.60 8.01 329.63 8.01 329.74 7.95C330.33 7.69 331.65 6.94 331.65 5.63C331.65 3.63 329.95 3.21 328.55 3.21C328.23 3.21 326.94 3.29 326.52 3.29C326.10 3.29 325.12 3.26 324.90 3.26C324.72 3.26 324.62 3.28 324.62 3.51ZM327.04 7.80L327.04 4.40C327.04 4.05 327.07 3.68 327.11 3.68C327.32 3.65 327.60 3.65 327.82 3.65C329.13 3.65 330.37 4.47 330.37 5.82C330.37 6.99 329.83 7.57 329.17 7.88C329.13 7.90 329.08 7.90 329.01 7.90C328.54 7.88 327.82 7.88 327.22 7.87C327.05 7.87 327.04 7.85 327.04 7.80ZM339.75 3.44C339.75 3.68 339.84 3.70 340.00 3.70L340.41 3.70C340.54 3.70 342.79 7.74 343.20 8.50C343.25 8.60 343.29 8.65 343.29 8.81C343.29 10.50 343.28 12.18 343.15 12.18L342.44 12.18C342.22 12.18 342.17 12.19 342.17 12.39C342.17 12.63 342.19 12.68 342.38 12.68C342.58 12.68 343.39 12.64 343.98 12.64C344.81 12.64 345.34 12.68 345.66 12.68C345.83 12.68 345.86 12.61 345.86 12.40C345.86 12.24 345.83 12.18 345.66 12.18L344.69 12.18C344.60 12.18 344.57 9.72 344.57 8.22C344.57 8.18 344.57 8.15 344.61 8.09C345.16 7.22 347.10 3.70 347.17 3.70L347.65 3.70C347.82 3.70 347.91 3.68 347.91 3.44C347.91 3.22 347.83 3.19 347.65 3.19C347.42 3.19 347.19 3.23 346.58 3.23C346.00 3.23 345.66 3.19 345.49 3.19C345.30 3.19 345.25 3.25 345.25 3.49C345.25 3.68 345.32 3.70 345.55 3.70L346.28 3.70C346.29 3.70 346.30 3.71 346.30 3.74C346.30 4.05 344.74 6.99 344.36 7.71C344.25 7.92 344.25 7.88 344.13 7.67C343.73 6.89 342.44 4.56 342.15 3.85C342.09 3.71 342.08 3.70 342.26 3.70L343.08 3.70C343.31 3.70 343.34 3.68 343.34 3.49C343.34 3.25 343.29 3.19 343.14 3.19C342.90 3.19 342.29 3.23 341.49 3.23C340.68 3.23 340.19 3.19 340.00 3.19C339.82 3.19 339.75 3.21 339.75 3.44Z"></path></g></svg>